<svg xmlns="http://www.w3.org/2000/svg" width="512" height="512" viewBox="0 0 45.008 45.009" xmlns:v="https://vecta.io/nano"><path d="M43.462 35.997l-11.401-11.37c1.197-2.352 1.845-4.962 1.845-7.676A16.84 16.84 0 0 0 28.94 4.965C25.739 1.763 21.481 0 16.953 0A16.84 16.84 0 0 0 4.966 4.965C1.765 8.167 0 12.424 0 16.952s1.764 8.785 4.966 11.986 7.459 4.965 11.986 4.965c2.714 0 5.325-.646 7.675-1.842l11.371 11.402c1.029 1.029 2.382 1.546 3.732 1.546s2.701-.517 3.731-1.546a5.28 5.28 0 0 0 .001-7.466zM9.444 24.459c-2.005-2.006-3.109-4.671-3.109-7.507s1.104-5.502 3.11-7.508 4.671-3.11 7.507-3.11 5.502 1.104 7.508 3.11 3.11 4.671 3.11 7.507a10.55 10.55 0 0 1-3.11 7.508 10.55 10.55 0 0 1-7.508 3.109 10.55 10.55 0 0 1-7.508-3.109z" fill="indigo"/></svg>