<?xml version="1.0"?>
<svg xmlns="http://www.w3.org/2000/svg" xmlns:xlink="http://www.w3.org/1999/xlink" xmlns:svgjs="http://svgjs.com/svgjs" version="1.1" width="512" height="512" x="0" y="0" viewBox="0 0 512.12 512.12" style="enable-background:new 0 0 512 512" xml:space="preserve"><g><g xmlns="http://www.w3.org/2000/svg"><path d="m12.418 369.957h52.024l83.237-94.685c5.78-6.572 15.767-7.195 22.311-1.389 6.543 5.807 7.161 15.844 1.382 22.418l-64.75 73.655h41.906c.013-.002.026-.005.039-.007 53.29-5.959 96.057-68.195 94.908-120.768v-61.919c.778-21.453 30.601-21.746 31.612-.449v12.958c3.044-2.788 6.35-5.613 9.947-8.429 24.594-19.254 68.138-42.206 135.91-42.206 2.158 0 4.213.437 6.087 1.224l16.635-40.06h52.647c21.206-1.019 20.892-30.99-.447-31.764h-50.541l-5.255-16.912c-11.381-36.631-45.14-61.565-83.331-61.564-21.078 0-44.595.89-70.364 23.915-4.544 4.06-8.715 8.522-12.605 13.217l-270.906 312.377c-6.679 8.121-.93 20.388 9.554 20.388zm359.755-316.544c8.676 0 15.709 7.067 15.709 15.785-.829 20.939-30.594 20.933-31.419 0 .001-8.718 7.034-15.785 15.71-15.785z" fill="#4b0082" data-original="#000000" style=""/><path d="m13.488 470.801c-7.449 0-13.488 6.068-13.488 13.553v14.152c0 7.485 6.039 13.553 13.488 13.553h151.677c5.039-11.538 5.045-29.709.001-41.259h-151.678z" fill="#4b0082" data-original="#000000" style=""/><path d="m198.339 470.801c2.875 12.157 2.872 29.096-.007 41.259h31.985c4.997-11.494 4.979-29.643-.045-41.259z" fill="#4b0082" data-original="#000000" style=""/><path d="m158.571 369.957h31.612v69.08h-31.612z" fill="#4b0082" data-original="#000000" style=""/><path d="m498.632 470.801h-235.205c2.881 12.181 2.893 29.115.039 41.259h235.166c7.449 0 13.488-6.068 13.488-13.553v-14.152c0-7.486-6.039-13.554-13.488-13.554z" fill="#4b0082" data-original="#000000" style=""/><path d="m420.944 190.897v-9.997c-104.493 0-141.415 59.977-145.856 67.958v.323c0 34.244-12.504 70.148-34.305 98.507-6.37 8.286-13.349 15.729-20.812 22.269v69.08h31.612v-69.08h2.283c92.274 0 167.078-86.341 167.078-179.06z" fill="#4b0082" data-original="#000000" style=""/></g></g></svg>
