<svg xmlns="http://www.w3.org/2000/svg" width="512" height="512" viewBox="0 0 512.005 512" fill="indigo" xmlns:v="https://vecta.io/nano"><path d="M320 277.336c-11.797 0-21.332 9.559-21.332 21.332v85.336c0 11.754-9.559 21.332-21.336 21.332h-64v-320c0-18.219-11.605-34.496-29.055-40.555l-6.316-2.113h99.371c11.777 0 21.336 9.578 21.336 21.336v64c0 11.773 9.535 21.332 21.332 21.332s21.332-9.559 21.332-21.332v-64c0-35.285-28.715-64-64-64H48c-.812 0-1.492.363-2.281.469-1.027-.086-2.008-.469-3.051-.469C19.137.004 0 19.137 0 42.668v384c0 18.219 11.605 34.496 29.055 40.555l128.387 42.797c4.352 1.344 8.68 1.984 13.227 1.984 23.531 0 42.664-19.137 42.664-42.668v-21.332h64c35.285 0 64-28.715 64-64v-85.336c0-11.773-9.535-21.332-21.332-21.332zm185.75-79.082l-85.336-85.332a21.33 21.33 0 0 0-23.25-4.633C389.207 111.598 384 119.383 384 128.004v64h-85.332c-11.777 0-21.336 9.555-21.336 21.332s9.559 21.332 21.336 21.332H384v64c0 8.621 5.207 16.406 13.164 19.715 7.977 3.305 17.152 1.469 23.25-4.629l85.336-85.336c8.34-8.34 8.34-21.824 0-30.164zm0 0"/></svg>