<svg xmlns="http://www.w3.org/2000/svg" width="512" height="512" fill="indigo" xmlns:v="https://vecta.io/nano"><path d="M256 181c-41.353 0-75 33.647-75 75s33.647 75 75 75 75-33.647 75-75-33.647-75-75-75zm256 117.305v-84.609l-69.408-13.667c-3.794-12.612-8.833-24.771-15.103-36.343l38.73-58.096-59.81-59.81-58.096 38.73a192.73 192.73 0 0 0-36.343-15.103L298.305 0h-84.609l-13.667 69.408c-12.612 3.794-24.771 8.833-36.343 15.103L105.59 45.78l-59.81 59.81 38.73 58.096a192.73 192.73 0 0 0-15.103 36.343L0 213.695v84.609l69.408 13.667c3.794 12.612 8.833 24.771 15.103 36.343L45.78 406.41l59.81 59.81 58.096-38.73a192.73 192.73 0 0 0 36.343 15.103L213.695 512h84.609l13.667-69.408c12.612-3.794 24.771-8.833 36.343-15.103l58.096 38.73 59.81-59.81-38.73-58.096a192.73 192.73 0 0 0 15.103-36.343L512 298.305zM256 361c-57.891 0-105-47.109-105-105s47.109-105 105-105 105 47.109 105 105-47.109 105-105 105z"/></svg>